<svg xmlns="http://www.w3.org/2000/svg" xmlns:xlink="http://www.w3.org/1999/xlink" viewBox="0 0 1033.77 301.49"><defs><style>.cls-1{fill:none;}.cls-2{clip-path:url(#clip-path);}.cls-3{fill:#fff;}</style><clipPath id="clip-path" transform="translate(-15.51 -15.51)"><rect class="cls-1" width="1064.79" height="332.5"/></clipPath></defs><g id="レイヤー_2" data-name="レイヤー 2"><g id="レイヤー_1-2" data-name="レイヤー 1"><g id="Wrangler_logo_wht"><g class="cls-2"><polygon class="cls-3" points="0 0 84.96 208.59 135.43 96.72 186.74 208.59 267.49 0.84 224.59 0.84 184.21 95.88 134.59 3.36 86.64 100.1 43.74 0 0 0"/><g class="cls-2"><path class="cls-3" d="M273.74,56.71V213.16h38.69v-95C319.16,99.62,341,92,355.33,92.88l.84-37c-17.66-4.2-38.69,9.26-42.89,14.31V56.71Z" transform="translate(-15.51 -15.51)"/><path class="cls-3" d="M472.26,57.55V214H511V124.85c0-32.81,52.16-33.65,50.48-2.52v92.51h40.35V109.71c-2.5-58-69.8-61.4-90-36.17v-16Z" transform="translate(-15.51 -15.51)"/><rect class="cls-3" x="745.27" y="1.68" width="41.21" height="199.36"/><path class="cls-3" d="M363.74,90.36h63.1l-1.68,23.55c-38.7-18.49-86.65,1.7-86.65,47.12,0,34.71,32,55.72,60.58,53.93a45.68,45.68,0,0,0,27.75-11.05V214h34.48V57.56H374.68ZM399.5,180.9c-13.47,0-24.39-8.52-24.39-19s10.92-19,24.39-19,24.38,8.52,24.38,19-10.91,19-24.38,19" transform="translate(-15.51 -15.51)"/><path class="cls-3" d="M860.87,169.43l97.57-69c-26.06-63.94-148.88-63.94-148.88,34.48,0,99.27,114.39,99.27,141.33,56.35l-16-29.42c-24.38,35.32-73.16,24.38-74,7.56m44.6-69-58.89,41.22c-9.26-40.39,38.7-69.82,58.89-41.22" transform="translate(-15.51 -15.51)"/><path class="cls-3" d="M966.87,56.71V213.16h38.67v-95c6.75-18.51,28.62-26.09,42.91-25.25l.83-37c-17.66-4.2-38.67,9.26-42.89,14.31V56.71Z" transform="translate(-15.51 -15.51)"/><path class="cls-3" d="M723.73,166.07A67.44,67.44,0,0,0,733,91.2H744.8l9.25-32.81H696.5a67.66,67.66,0,0,0-75.12,107.48s-10.48,11.44-16.29,19.7l30.35,24.23,1.46,2a43.44,43.44,0,1,1,1.22,46.62l-27,28.65C626.61,304.41,646.58,317,671.61,317a84.45,84.45,0,0,0,52.12-150.92m-22.85-42.59a28.18,28.18,0,0,1-28.42,28.24,28.55,28.55,0,1,1,28.48-30.23,5.53,5.53,0,0,1-.06,2" transform="translate(-15.51 -15.51)"/><path class="cls-3" d="M812.18,31.83A12.8,12.8,0,1,1,825,44.48a12.61,12.61,0,0,1-12.81-12.65M825,42.39a10.22,10.22,0,0,0,10.25-10.56,10.27,10.27,0,1,0-20.53,0A10.23,10.23,0,0,0,825,42.39m-2.65-3.25h-2.22V24.58h5.55c3.45,0,5.16,1.26,5.16,4.14,0,2.61-1.65,3.73-3.79,4l4.16,6.42h-2.48l-3.84-6.32h-2.54ZM825,31c1.88,0,3.56-.15,3.56-2.38,0-1.81-1.65-2.14-3.19-2.14h-3V31Z" transform="translate(-15.51 -15.51)"/></g></g></g></g></g></svg>